<?xml version="1.0" encoding="UTF-8" standalone="no"?>
<!DOCTYPE svg PUBLIC "-//W3C//DTD SVG 1.1//EN" "http://www.w3.org/Graphics/SVG/1.1/DTD/svg11.dtd">
<svg width="100%" height="100%" viewBox="0 0 885 237" version="1.1" xmlns="http://www.w3.org/2000/svg" xmlns:xlink="http://www.w3.org/1999/xlink" xml:space="preserve" xmlns:serif="http://www.serif.com/" style="fill-rule:evenodd;clip-rule:evenodd;stroke-linejoin:round;stroke-miterlimit:2;">
    <g transform="matrix(0.506277,0,0,0.502927,0,0)">
        <rect id="Artboard1" x="0" y="0" width="1748.03" height="469.691" style="fill:none;"/>
        <clipPath id="_clip1">
            <rect id="Artboard11" serif:id="Artboard1" x="0" y="0" width="1748.03" height="469.691"/>
        </clipPath>
        <g clip-path="url(#_clip1)">
            <g transform="matrix(1.57126,0,0,1.58172,-278.056,-307.104)">
                <g transform="matrix(294.978,0,0,294.978,175.194,417.362)">
                    <path d="M0.436,0.017C0.384,0.017 0.358,-0.005 0.358,-0.05C0.358,-0.065 0.36,-0.082 0.365,-0.101C0.369,-0.12 0.375,-0.144 0.383,-0.174C0.392,-0.205 0.399,-0.232 0.404,-0.254C0.409,-0.276 0.411,-0.296 0.411,-0.313C0.411,-0.358 0.391,-0.381 0.351,-0.381C0.34,-0.381 0.329,-0.38 0.318,-0.377L0.238,-0L0.094,-0L0.239,-0.68C0.194,-0.661 0.16,-0.633 0.136,-0.596C0.111,-0.559 0.099,-0.514 0.099,-0.461C0.099,-0.436 0.101,-0.419 0.106,-0.41C0.111,-0.4 0.113,-0.394 0.113,-0.393C0.077,-0.393 0.05,-0.401 0.033,-0.416C0.015,-0.431 0.006,-0.455 0.006,-0.49C0.006,-0.533 0.024,-0.574 0.059,-0.615C0.094,-0.655 0.138,-0.688 0.193,-0.713C0.248,-0.737 0.302,-0.75 0.357,-0.75C0.366,-0.75 0.38,-0.749 0.397,-0.748L0.332,-0.442L0.435,-0.58C0.517,-0.691 0.558,-0.746 0.559,-0.745L0.664,-0.745L0.386,-0.425L0.421,-0.426C0.466,-0.426 0.498,-0.417 0.517,-0.398C0.536,-0.379 0.545,-0.352 0.545,-0.319C0.545,-0.3 0.543,-0.279 0.538,-0.258C0.533,-0.236 0.527,-0.209 0.518,-0.177C0.513,-0.156 0.508,-0.136 0.503,-0.116C0.498,-0.096 0.496,-0.079 0.496,-0.066C0.496,-0.051 0.5,-0.037 0.507,-0.025C0.514,-0.013 0.523,-0.005 0.535,-0C0.494,0.011 0.461,0.017 0.436,0.017Z" style="fill:rgb(227,77,13);fill-rule:nonzero;"/>
                </g>
                <g transform="matrix(294.978,0,0,294.978,352.475,417.362)">
                    <path d="M0.099,0.006C0.067,0.006 0.041,-0.004 0.022,-0.024C0.002,-0.044 -0.008,-0.074 -0.008,-0.114C-0.008,-0.131 -0.005,-0.152 0,-0.179L0.068,-0.5L0.212,-0.5L0.14,-0.16C0.138,-0.15 0.137,-0.141 0.137,-0.132C0.137,-0.105 0.147,-0.091 0.167,-0.091C0.186,-0.091 0.202,-0.099 0.215,-0.115C0.228,-0.13 0.239,-0.152 0.247,-0.179L0.315,-0.5L0.459,-0.5L0.387,-0.16C0.384,-0.15 0.383,-0.139 0.383,-0.128C0.383,-0.115 0.386,-0.105 0.393,-0.1C0.399,-0.094 0.409,-0.091 0.424,-0.091C0.443,-0.091 0.459,-0.099 0.473,-0.115C0.486,-0.131 0.497,-0.152 0.505,-0.179L0.547,-0.179C0.522,-0.107 0.492,-0.058 0.456,-0.033C0.419,-0.007 0.383,0.006 0.346,0.006C0.317,0.006 0.295,-0.002 0.278,-0.018C0.261,-0.034 0.25,-0.058 0.247,-0.089C0.224,-0.052 0.201,-0.027 0.176,-0.014C0.151,-0.001 0.125,0.006 0.099,0.006Z" style="fill:rgb(227,77,13);fill-rule:nonzero;"/>
                </g>
                <g transform="matrix(294.978,0,0,294.978,501.439,417.362)">
                    <path d="M0.177,0.25C0.145,0.25 0.118,0.242 0.097,0.225C0.076,0.208 0.065,0.184 0.065,0.153C0.065,0.115 0.08,0.085 0.111,0.062C0.142,0.039 0.181,0.019 0.228,0.004L0.24,-0.049C0.206,-0.012 0.166,0.006 0.12,0.006C0.082,0.006 0.05,-0.007 0.025,-0.033C-0,-0.059 -0.013,-0.1 -0.013,-0.155C-0.013,-0.204 -0.003,-0.256 0.017,-0.311C0.036,-0.365 0.066,-0.411 0.105,-0.449C0.143,-0.486 0.19,-0.505 0.244,-0.505C0.271,-0.505 0.292,-0.5 0.305,-0.491C0.318,-0.482 0.325,-0.469 0.325,-0.454L0.325,-0.448L0.336,-0.5L0.48,-0.5L0.381,-0.036C0.413,-0.047 0.439,-0.063 0.458,-0.084C0.477,-0.105 0.494,-0.137 0.507,-0.179L0.549,-0.179C0.531,-0.12 0.507,-0.076 0.476,-0.049C0.445,-0.021 0.411,-0.002 0.372,0.008L0.357,0.08C0.344,0.145 0.321,0.189 0.288,0.214C0.255,0.238 0.218,0.25 0.177,0.25ZM0.185,-0.091C0.2,-0.091 0.216,-0.098 0.232,-0.112C0.248,-0.126 0.259,-0.145 0.265,-0.169L0.316,-0.406C0.316,-0.414 0.313,-0.422 0.306,-0.431C0.299,-0.439 0.289,-0.443 0.275,-0.443C0.248,-0.443 0.224,-0.428 0.203,-0.397C0.182,-0.366 0.165,-0.328 0.153,-0.285C0.141,-0.241 0.135,-0.202 0.135,-0.169C0.135,-0.136 0.14,-0.114 0.15,-0.105C0.159,-0.096 0.171,-0.091 0.185,-0.091ZM0.154,0.172C0.165,0.172 0.176,0.164 0.187,0.149C0.198,0.134 0.206,0.112 0.212,0.083L0.218,0.054C0.153,0.078 0.12,0.106 0.12,0.139C0.12,0.148 0.123,0.155 0.129,0.162C0.135,0.169 0.143,0.172 0.154,0.172Z" style="fill:rgb(227,77,13);fill-rule:nonzero;"/>
                </g>
                <g transform="matrix(294.978,0,0,294.978,650.993,417.362)">
                    <path d="M0.143,0.006C0.094,0.006 0.055,-0.007 0.028,-0.033C0.001,-0.058 -0.013,-0.098 -0.013,-0.153C-0.013,-0.199 -0.004,-0.25 0.014,-0.305C0.032,-0.36 0.061,-0.408 0.102,-0.449C0.143,-0.489 0.194,-0.509 0.257,-0.509C0.33,-0.509 0.367,-0.477 0.367,-0.413C0.367,-0.376 0.356,-0.341 0.335,-0.31C0.314,-0.279 0.285,-0.254 0.25,-0.235C0.215,-0.216 0.177,-0.205 0.137,-0.202C0.136,-0.182 0.135,-0.169 0.135,-0.162C0.135,-0.129 0.141,-0.107 0.152,-0.096C0.163,-0.084 0.182,-0.078 0.207,-0.078C0.243,-0.078 0.274,-0.086 0.3,-0.103C0.325,-0.12 0.353,-0.145 0.384,-0.179L0.418,-0.179C0.344,-0.056 0.252,0.006 0.143,0.006ZM0.145,-0.25C0.17,-0.251 0.193,-0.26 0.216,-0.276C0.238,-0.292 0.256,-0.312 0.27,-0.337C0.283,-0.362 0.29,-0.388 0.29,-0.415C0.29,-0.442 0.282,-0.456 0.265,-0.456C0.241,-0.456 0.218,-0.435 0.195,-0.393C0.171,-0.351 0.155,-0.303 0.145,-0.25Z" style="fill:rgb(227,77,13);fill-rule:nonzero;"/>
                </g>
                <g transform="matrix(294.978,0,0,294.978,764.265,417.362)">
                    <path d="M0.097,0.006C0.065,0.006 0.039,-0.004 0.02,-0.025C-0,-0.045 -0.01,-0.075 -0.01,-0.116C-0.01,-0.133 -0.007,-0.154 -0.002,-0.181L0.105,-0.682L0.253,-0.702L0.138,-0.162C0.135,-0.152 0.134,-0.142 0.134,-0.133C0.134,-0.106 0.148,-0.093 0.175,-0.093C0.187,-0.093 0.198,-0.095 0.207,-0.099C0.204,-0.066 0.193,-0.04 0.172,-0.022C0.151,-0.003 0.126,0.006 0.097,0.006Z" style="fill:rgb(227,77,13);fill-rule:nonzero;"/>
                </g>
                <g transform="matrix(294.978,0,0,294.978,825.325,417.362)">
                    <path d="M0.11,0.004C0.088,0.004 0.069,-0.004 0.054,-0.019C0.039,-0.034 0.031,-0.053 0.031,-0.075C0.031,-0.097 0.039,-0.116 0.054,-0.132C0.069,-0.147 0.088,-0.155 0.11,-0.155C0.132,-0.155 0.151,-0.147 0.167,-0.132C0.182,-0.116 0.19,-0.097 0.19,-0.075C0.19,-0.053 0.182,-0.034 0.167,-0.019C0.151,-0.004 0.132,0.004 0.11,0.004Z" style="fill:rgb(227,77,13);fill-rule:nonzero;"/>
                </g>
                <g transform="matrix(294.978,0,0,294.978,902.904,417.362)">
                    <path d="M0.146,0.004C0.097,0.004 0.058,-0.009 0.029,-0.034C0,-0.059 -0.014,-0.099 -0.014,-0.154C-0.014,-0.199 -0.005,-0.25 0.014,-0.305C0.033,-0.36 0.063,-0.408 0.104,-0.449C0.145,-0.489 0.197,-0.509 0.26,-0.509C0.345,-0.509 0.388,-0.456 0.388,-0.349L0.388,-0.348C0.39,-0.347 0.394,-0.347 0.399,-0.347C0.421,-0.347 0.446,-0.353 0.475,-0.365C0.504,-0.376 0.53,-0.39 0.553,-0.407L0.562,-0.38C0.543,-0.359 0.518,-0.342 0.487,-0.328C0.456,-0.313 0.422,-0.303 0.385,-0.297C0.38,-0.236 0.366,-0.183 0.344,-0.138C0.322,-0.093 0.294,-0.058 0.259,-0.033C0.224,-0.008 0.187,0.004 0.146,0.004ZM0.186,-0.086C0.202,-0.086 0.218,-0.095 0.234,-0.114C0.25,-0.132 0.264,-0.157 0.276,-0.189C0.288,-0.22 0.297,-0.255 0.302,-0.294C0.284,-0.298 0.275,-0.312 0.275,-0.336C0.275,-0.363 0.285,-0.381 0.306,-0.39C0.305,-0.412 0.301,-0.427 0.296,-0.436C0.291,-0.444 0.281,-0.448 0.268,-0.448C0.246,-0.448 0.225,-0.432 0.204,-0.4C0.183,-0.368 0.167,-0.33 0.154,-0.285C0.141,-0.24 0.135,-0.201 0.135,-0.167C0.135,-0.135 0.139,-0.114 0.146,-0.103C0.153,-0.092 0.167,-0.086 0.186,-0.086Z" style="fill:rgb(227,77,13);fill-rule:nonzero;"/>
                </g>
                <g transform="matrix(294.978,0,0,294.978,1032.4,417.362)">
                    <path d="M0.068,-0.5L0.212,-0.5L0.199,-0.438C0.222,-0.458 0.242,-0.473 0.261,-0.484C0.279,-0.495 0.299,-0.5 0.32,-0.5C0.341,-0.5 0.358,-0.493 0.371,-0.478C0.383,-0.463 0.389,-0.446 0.389,-0.425C0.389,-0.406 0.383,-0.389 0.37,-0.374C0.357,-0.359 0.34,-0.352 0.317,-0.352C0.302,-0.352 0.293,-0.356 0.288,-0.363C0.283,-0.37 0.279,-0.38 0.276,-0.393C0.274,-0.402 0.272,-0.408 0.27,-0.412C0.268,-0.416 0.264,-0.418 0.259,-0.418C0.245,-0.418 0.233,-0.415 0.224,-0.41C0.214,-0.404 0.201,-0.394 0.186,-0.38L0.106,-0L-0.038,-0L0.068,-0.5Z" style="fill:rgb(227,77,13);fill-rule:nonzero;"/>
                </g>
                <g transform="matrix(294.978,0,0,294.978,1143.31,417.362)">
                    <path d="M0.176,0.25C0.145,0.25 0.117,0.24 0.094,0.22C0.07,0.199 0.058,0.173 0.058,0.142C0.058,0.113 0.065,0.089 0.08,0.07C0.095,0.051 0.114,0.037 0.137,0.026C0.16,0.015 0.192,0.004 0.231,-0.008L0.24,-0.05C0.205,-0.013 0.165,0.006 0.12,0.006C0.082,0.006 0.05,-0.007 0.025,-0.033C-0,-0.059 -0.013,-0.1 -0.013,-0.155C-0.013,-0.204 -0.003,-0.256 0.017,-0.311C0.036,-0.365 0.066,-0.411 0.105,-0.449C0.143,-0.486 0.19,-0.505 0.244,-0.505C0.271,-0.505 0.292,-0.5 0.305,-0.491C0.318,-0.482 0.325,-0.469 0.325,-0.454L0.325,-0.452L0.335,-0.5L0.48,-0.5L0.358,0.08C0.345,0.144 0.321,0.188 0.288,0.213C0.254,0.238 0.217,0.25 0.176,0.25ZM0.185,-0.091C0.2,-0.091 0.216,-0.097 0.232,-0.111C0.247,-0.124 0.258,-0.142 0.265,-0.166L0.316,-0.408C0.311,-0.431 0.297,-0.443 0.275,-0.443C0.248,-0.443 0.224,-0.428 0.203,-0.397C0.182,-0.366 0.165,-0.328 0.153,-0.285C0.141,-0.241 0.135,-0.202 0.135,-0.169C0.135,-0.136 0.14,-0.114 0.15,-0.105C0.159,-0.096 0.171,-0.091 0.185,-0.091ZM0.153,0.161C0.165,0.161 0.176,0.155 0.187,0.143C0.198,0.13 0.206,0.11 0.212,0.083L0.224,0.024C0.189,0.036 0.161,0.05 0.142,0.066C0.123,0.082 0.113,0.103 0.113,0.128C0.113,0.136 0.117,0.143 0.125,0.151C0.133,0.158 0.142,0.161 0.153,0.161Z" style="fill:rgb(227,77,13);fill-rule:nonzero;"/>
                </g>
            </g>
        </g>
    </g>
</svg>
